<?xml version="1.0" encoding="utf-8"?>
<!-- Generator: Adobe Illustrator 22.1.0, SVG Export Plug-In . SVG Version: 6.00 Build 0)  -->
<svg version="1.1"
	 id="Calque_1" xmlns:cc="http://creativecommons.org/ns#" xmlns:dc="http://purl.org/dc/elements/1.1/" xmlns:inkscape="http://www.inkscape.org/namespaces/inkscape" xmlns:rdf="http://www.w3.org/1999/02/22-rdf-syntax-ns#" xmlns:sodipodi="http://sodipodi.sourceforge.net/DTD/sodipodi-0.dtd" xmlns:svg="http://www.w3.org/2000/svg"
	 xmlns="http://www.w3.org/2000/svg" xmlns:xlink="http://www.w3.org/1999/xlink" x="0px" y="0px" viewBox="0 0 82 82"
	 style="enable-background:new 0 0 82 82;" xml:space="preserve">
<g transform="translate(0,-952.36218)">
	<path d="M30,952.4c-16.5,0-30,13.5-30,30c0,16.5,13.5,30,30,30c6.8,0,13.1-2.3,18.2-6.2l27,27c1.6,1.6,4.1,1.6,5.7,0
		c1.6-1.6,1.6-4.1,0-5.7l-27-27c3.9-5,6.2-11.4,6.2-18.2C60,965.8,46.5,952.4,30,952.4z M30,960.4c12.2,0,22,9.8,22,22
		c0,12.2-9.8,22-22,22c-12.2,0-22-9.8-22-22C8,970.2,17.8,960.4,30,960.4z"/>
</g>
</svg>
